<?xml version="1.0" encoding="UTF-8" standalone="no"?>
<svg
   xmlns:dc="http://purl.org/dc/elements/1.1/"
   xmlns:cc="http://creativecommons.org/ns#"
   xmlns:rdf="http://www.w3.org/1999/02/22-rdf-syntax-ns#"
   xmlns:svg="http://www.w3.org/2000/svg"
   xmlns="http://www.w3.org/2000/svg"
   xmlns:sodipodi="http://sodipodi.sourceforge.net/DTD/sodipodi-0.dtd"
   xmlns:inkscape="http://www.inkscape.org/namespaces/inkscape"
   inkscape:version="1.0beta1 (32d4812, 2019-09-19)"
   sodipodi:docname="undraw_invest_88iw.svg"
   version="1.1"
   viewBox="0 0 1106 776"
   height="776"
   width="1106"
   data-name="Layer 1"
   id="fc5c3225-7602-4bc9-83b7-60b4757d2e45">
  <metadata
     id="metadata2056">
    <rdf:RDF>
      <cc:Work
         rdf:about="">
        <dc:format>image/svg+xml</dc:format>
        <dc:type
           rdf:resource="http://purl.org/dc/dcmitype/StillImage" />
      </cc:Work>
    </rdf:RDF>
  </metadata>
  <defs
     id="defs2054" />
  <sodipodi:namedview
     inkscape:current-layer="fc5c3225-7602-4bc9-83b7-60b4757d2e45"
     inkscape:window-maximized="0"
     inkscape:window-y="23"
     inkscape:window-x="0"
     inkscape:cy="388"
     inkscape:cx="3.8088235"
     inkscape:zoom="0.35051546"
     showgrid="false"
     id="namedview2052"
     inkscape:window-height="762"
     inkscape:window-width="1341"
     inkscape:pageshadow="2"
     inkscape:pageopacity="0"
     guidetolerance="10"
     gridtolerance="10"
     objecttolerance="10"
     borderopacity="1"
     inkscape:document-rotation="0"
     bordercolor="#666666"
     pagecolor="#ffffff" />
  <title
     id="title1963">invest</title>
  <ellipse
     id="ellipse1965"
     fill="#3f3d56"
     ry="32.5"
     rx="416"
     cy="743.5"
     cx="416" />
  <path
     id="path1967"
     fill="#3f3d56"
     transform="translate(-247 -162)"
     d="M403.14648,882.52148c-.22949-.375-5.64062-9.41015-7.5166-28.17187-1.7207-17.21289-.61425-46.22656,14.43262-86.69824,28.50586-76.6709-6.56934-138.53321-6.92773-139.14942l1.73046-1.0039c.09082.15625,9.14161,15.92871,14.48829,41.04394a179.06122,179.06122,0,0,1-7.416,99.80664c-28.457,76.54-7.30078,112.77344-7.084,113.13086Z" />
  <circle
     style="fill:#a12e3b;fill-opacity:1"
     id="circle1969"
     fill="#6c63ff"
     r="13"
     cy="449"
     cx="145" />
  <circle
     id="circle1971"
     fill="#3f3d56"
     r="13"
     cy="497"
     cx="186" />
  <circle
     style="fill:#a12e3b;fill-opacity:1"
     id="circle1973"
     fill="#6c63ff"
     r="13"
     cy="529"
     cx="158" />
  <circle
     style="fill:#a12e3b;fill-opacity:1"
     id="circle1975"
     fill="#6c63ff"
     r="13"
     cy="556"
     cx="192" />
  <circle
     id="circle1977"
     fill="#3f3d56"
     r="13"
     cy="598"
     cx="148" />
  <path
     id="path1979"
     fill="#3f3d56"
     transform="translate(-247 -162)"
     d="M411,883s-13-32,26-56Z" />
  <path
     id="path1981"
     fill="#3f3d56"
     transform="translate(-247 -162)"
     d="M395.012,882.41953s-5.91642-34.02934-51.7085-33.73768Z" />
  <path
     id="path1983"
     fill="#a0616a"
     transform="translate(-247 -162)"
     d="M617,317s1,26-5,32,30,27,30,27l21-33s-8-14-6-26Z" />
  <polygon
     id="polygon1985"
     fill="#a0616a"
     points="305.5 683.5 305.5 708.5 336.5 710.5 334.5 683.5 305.5 683.5" />
  <polygon
     id="polygon1987"
     fill="#a0616a"
     points="475.5 683.5 475.5 708.5 444.5 710.5 446.5 683.5 475.5 683.5" />
  <path
     id="path1989"
     fill="#d0cde1"
     transform="translate(-247 -162)"
     d="M568.5,568.5s-16,58-6,104c0,0,0,20,4,24s5,4,2,6-9,7-6,10,4,7,2,8-4,3-2,7-10,111-10,111-12,13,0,14,32,6,34-2,18-121,18-121,2-3,6-8,2-7,2-8,21-96,21-96,31,108,34,110,4,2,4,5-2,5,0,8a51.953,51.953,0,0,1,3,5s5,112,15,112,40-2,37-11-7-7-7-7,7-92-10-119v-22c0-2,1-3,0-5s3-121-16-128S568.5,568.5,568.5,568.5Z" />
  <path
     id="path1991"
     fill="#2f2e41"
     transform="translate(-247 -162)"
     d="M571.5,863.5s-5-8-12-8-12,8-12,8l-18,25s-26,16-16,25,37,4,37,4,22-16,25-17,11-6,12-7-2-37-5-34.5S577.5,869.5,571.5,863.5Z" />
  <path
     id="path1993"
     fill="#2f2e41"
     transform="translate(-247 -162)"
     d="M703.5,863.5s5-8,12-8,12,8,12,8l18,25s26,16,16,25-37,4-37,4-22-16-25-17-11-6-12-7,2-37,5-34.5S697.5,869.5,703.5,863.5Z" />
  <circle
     id="circle1995"
     fill="#a0616a"
     r="36"
     cy="133.5"
     cx="387.5" />
  <path
     id="path1997"
     fill="#3f3d56"
     transform="translate(-247 -162)"
     d="M625,352s-6.72751.37087-9.86376-9.81457L562,381l22,59s3,32,0,41-5,16-5,20-21,71-13,74,130,15,133-5-10-152-10-152l21-51-51.05491-33.39657S654,354,625,352Z" />
  <path
     id="path1999"
     fill="#a0616a"
     transform="translate(-247 -162)"
     d="M558.5,444.5l-4,31s-16,33-12,77l-1,29s-10,50,10,52,7-55,7-55l11-27,11.26029-60.06194L586.5,449.5Z" />
  <path
     id="path2001"
     fill="#3f3d56"
     transform="translate(-247 -162)"
     d="M576.5,379.5,562,381s-9.5,70.5-6.5,70.5,37,8,38,6S576.5,379.5,576.5,379.5Z" />
  <path
     id="path2003"
     fill="#2f2e41"
     transform="translate(-247 -162)"
     d="M606.7236,258.59754l-6.48961-2.35987s13.56911-13.5691,32.448-12.38912l-5.3098-5.30972s12.9792-4.71963,24.77842,7.66949c6.20262,6.51271,13.37914,14.168,17.853,22.79168h6.9499l-2.90063,5.80127,10.15222,5.80126-10.42026-1.04206a29.27363,29.27363,0,0,1-.98558,15.02464l-2.35978,6.48952S661,282.1959,661,279.836v5.89961s-6.4896-5.30963-6.4896-8.84938l-3.53975,4.12974-1.76988-6.4896L627.3722,281.016l3.53975-5.30962-13.5691,1.76987,5.3098-6.4896s-15.339,7.66949-15.929,14.15909c-.5899,6.48951-8.2593,14.749-8.2593,14.749l-3.53975-5.89961S589.61474,267.44691,606.7236,258.59754Z" />
  <ellipse
     id="ellipse2005"
     fill="#3f3d56"
     ry="95"
     rx="66.75"
     cy="514.5"
     cx="454.25" />
  <ellipse
     id="ellipse2007"
     opacity="0.1"
     ry="95"
     rx="66.75"
     cy="514.5"
     cx="454.25" />
  <ellipse
     id="ellipse2009"
     fill="#3f3d56"
     ry="95"
     rx="66.75"
     cy="514.5"
     cx="463.25" />
  <ellipse
     id="ellipse2011"
     opacity="0.1"
     ry="81.4794"
     rx="57.25"
     cy="514.5"
     cx="463.25" />
  <path
     style="fill:#a12e3b;fill-opacity:1"
     id="path2013"
     fill="#6c63ff"
     transform="translate(-247 -162)"
     d="M709.754,715.74791v-9.56458c-4.83486-.09432-9.8366-1.79954-12.754-4.16687l2.00045-6.34464a20.38775,20.38775,0,0,0,12.00393,4.07163c5.91873,0,9.92-3.88252,9.92-9.28022,0-5.2086-3.25119-8.42808-9.41983-11.26934-8.50283-3.78773-13.75447-8.14417-13.75447-16.38268,0-7.86028,4.9183-13.82623,12.58758-15.24663V638h5.1682v9.1859a20.28186,20.28186,0,0,1,10.837,3.31426l-2.08429,6.25031a18.42058,18.42058,0,0,0-10.50329-3.21994c-6.41853,0-8.83617,4.356-8.83617,8.14418,0,4.92424,3.08432,7.38635,10.33682,10.79587,8.58586,3.9773,12.92091,8.90154,12.92091,17.32961,0,7.48114-4.585,14.48928-13.17122,16.09832v9.8494Z" />
  <path
     id="path2015"
     fill="#a0616a"
     transform="translate(-247 -162)"
     d="M724.5,433.5v41s1,50-16,81l-9,20s-18,58-29,40,12-48,12-48l13.01614-76.11956L687.5,440.5Z" />
  <path
     id="path2017"
     fill="#3f3d56"
     transform="translate(-247 -162)"
     d="M690.5,364.5,710,367s23.5,71.5,17.5,74.5-45,5-45,5Z" />
  <rect
     id="rect2019"
     fill="#f2f2f2"
     height="512.74104"
     width="458"
     y="50.25896"
     x="591" />
  <path
     id="path2021"
     fill="#e6e6e6"
     transform="translate(-247 -162)"
     d="M922,598.81445H910v-2h12Zm-24,0H886v-2h12Zm-24,0H862v-2h12Zm-24,0H838v-2h12Z" />
  <path
     id="path2023"
     fill="#e6e6e6"
     transform="translate(-247 -162)"
     d="M1090,504h-12v-2h12Zm-24,0h-12v-2h12Zm-24,0h-12v-2h12Zm-24,0h-12v-2h12Zm-24,0H982v-2h12Zm-24,0H958v-2h12Zm-24,0H934v-2h12Zm-24,0H910v-2h12Zm-24,0H886v-2h12Zm-24,0H862v-2h12Zm-24,0H838v-2h12Z" />
  <path
     id="path2025"
     fill="#e6e6e6"
     transform="translate(-247 -162)"
     d="M1330,445h-12v-2h12Zm-24,0h-12v-2h12Zm-24,0h-12v-2h12Zm-24,0h-12v-2h12Zm-24,0h-12v-2h12Zm-24,0h-12v-2h12Zm-24,0h-12v-2h12Zm-24,0h-12v-2h12Zm-24,0h-12v-2h12Zm-24,0h-12v-2h12Zm-24,0h-12v-2h12Zm-24,0h-12v-2h12Zm-24,0h-12v-2h12Zm-24,0h-12v-2h12Zm-24,0H982v-2h12Zm-24,0H958v-2h12Zm-24,0H934v-2h12Zm-24,0H910v-2h12Zm-24,0H886v-2h12Zm-24,0H862v-2h12Zm-24,0H838v-2h12Z" />
  <rect
     id="rect2027"
     fill="#e6e6e6"
     height="6"
     width="2"
     y="0.77588"
     x="680" />
  <path
     id="path2029"
     fill="#e6e6e6"
     transform="translate(-247 -162)"
     d="M929,617.19922h-2V605.39844h2Zm0-23.60156h-2V581.79688h2Zm0-23.60157h-2v-11.7998h2Zm0-23.60058h-2V534.59473h2Zm0-23.60156h-2V510.99316h2Zm0-23.60157h-2v-11.7998h2Zm0-23.60058h-2V463.791h2Zm0-23.60157h-2V440.18945h2Zm0-23.60156h-2v-11.7998h2Zm0-23.60058h-2V392.9873h2Zm0-23.60157h-2V369.38623h2Zm0-23.60107h-2V345.78467h2Zm0-23.60107h-2V322.18359h2Zm0-23.60157h-2V298.58252h2Zm0-23.60107h-2V274.981h2Zm0-23.60108h-2V251.37988h2Zm0-23.60156h-2V227.77881h2Zm0-23.60107h-2V204.17725h2Zm0-23.60108h-2V180.57617h2Z" />
  <rect
     id="rect2031"
     fill="#e6e6e6"
     height="6"
     width="2"
     y="467"
     x="680" />
  <rect
     id="rect2033"
     fill="#e6e6e6"
     height="6"
     width="2"
     y="0.77588"
     x="854" />
  <path
     id="path2035"
     fill="#e6e6e6"
     transform="translate(-247 -162)"
     d="M1103,526.08984h-2V514.17871h2Zm0-23.82129h-2V490.3584h2Zm0-23.82128h-2V466.53711h2Zm0-23.82032h-2V442.71582h2Zm0-23.82129h-2V418.89551h2Zm0-23.8208h-2V395.07422h2Zm0-23.8208h-2V371.25342h2Zm0-23.82129h-2V347.43262h2Zm0-23.8208h-2V323.61133h2Zm0-23.8208h-2V299.79053h2Zm0-23.8208h-2V275.96973h2Zm0-23.82129h-2V252.14893h2Zm0-23.8208h-2V228.32764h2Zm0-23.8208h-2V204.50684h2Zm0-23.8208h-2V180.686h2Z" />
  <rect
     id="rect2037"
     fill="#e6e6e6"
     height="6"
     width="2"
     y="376"
     x="854" />
  <polygon
     style="fill:#a12e3b;fill-opacity:1"
     id="polygon2039"
     fill="#6c63ff"
     points="591 563 682 472 723.5 513.5 855 382 940 467 1093 314 1093 563 591 563" />
  <path
     id="path2041"
     fill="#3f3d56"
     transform="translate(-247 -162)"
     d="M1341,726H837V162h504Zm-502-2h500V164H839Z" />
  <circle
     id="circle2043"
     fill="#3f3d56"
     r="13"
     cy="434"
     cx="681" />
  <circle
     id="circle2045"
     fill="#3f3d56"
     r="13"
     cy="341"
     cx="855" />
  <circle
     id="circle2047"
     fill="#3f3d56"
     r="13"
     cy="282"
     cx="1093" />
  <path
     id="path2049"
     fill="#3f3d56"
     transform="translate(-247 -162)"
     d="M1249,242c-5.81738,1.68762-13.62061,2.99127-19.39758,2.52979l7.53845,5.00732L882.40527,512.19629l1.18946,1.60742,354.73608-262.65948,2.5907,8.6726C1242.16577,254.15662,1245.68958,247.07343,1249,242Z" />
</svg>
